# xmcd
#
# Track frame offsets:
#	150
#	14299
#	31376
#	42037
#	56693
#	71016
#	84350
#	106432
#	119013
#	131253
#	150807
#	166268
#
# Disc length: 2377 seconds
#
# Revision: 1
# Processed by: cddbd v1.5.2PL0 Copyright (c) Steve Scherf et al.
# Submitted via: audiograbber 1.83.01
#
DISCID=8e09470c
DTITLE=Watkins and the Rapiers - The Return of Watkins and the Rapiers
DYEAR=2010
DGENRE=Alt Country
TTITLE0=Cadillac
TTITLE1=Happy Louie
TTITLE2=There Ain't No Radio
TTITLE3=Middle Of The Sea
TTITLE4=Vacation From God
TTITLE5=I Fell In Love With A Heartache
TTITLE6=I Think She Likes You
TTITLE7=The Monkey Made A Man Out Of Me
TTITLE8=The Truth
TTITLE9=Who's Romeo Now
TTITLE10=The Most Dangerous Game
TTITLE11=Don't Lay Me Down
EXTD=
EXTT0=
EXTT1=
EXTT2=
EXTT3=
EXTT4=
EXTT5=
EXTT6=
EXTT7=
EXTT8=
EXTT9=
EXTT10=
EXTT11=
PLAYORDER=
